<svg width="206" height="110" viewBox="0 0 206 110" fill="none" xmlns="http://www.w3.org/2000/svg">
<g clip-path="url(#clip0_1_1003)">
<path d="M0.00012207 22.4C0.00012207 14.5593 0.00012207 10.6389 1.52603 7.64413C2.86826 5.00986 5.00999 2.86814 7.64425 1.52591C10.639 0 14.5594 0 22.4001 0H183.6C191.441 0 195.361 0 198.356 1.52591C200.99 2.86814 203.132 5.00986 204.474 7.64413C206 10.6389 206 14.5593 206 22.4V109.091H0.00012207V22.4Z" fill="#111111"/>
<g clip-path="url(#clip1_1_1003)">
<mask id="mask0_1_1003" style="mask-type:alpha" maskUnits="userSpaceOnUse" x="125" y="-12" width="92" height="345">
<rect x="170.057" y="333.01" width="341.362" height="47.7974" rx="4.98339" transform="rotate(-97.5718 170.057 333.01)" fill="#C4C4C4"/>
</mask>
<g mask="url(#mask0_1_1003)">
<path d="M101.148 -97.3422L182.89 425.296" stroke="#FCC232" stroke-width="1.86877"/>
<path d="M104.134 -97.7389L185.876 424.9" stroke="white" stroke-width="1.86877"/>
<path d="M107.118 -98.1352L188.86 424.503" stroke="#FCC232" stroke-width="1.86877"/>
<path d="M110.103 -98.5299L191.845 424.109" stroke="#FFDF6B" stroke-width="1.86877"/>
<path d="M113.087 -98.9272L194.829 423.711" stroke="#FFC46B" stroke-width="1.86877"/>
<path d="M116.071 -99.3256L197.813 423.313" stroke="#FF986B" stroke-width="1.86877"/>
<path d="M119.057 -99.7223L200.799 422.916" stroke="#FF746B" stroke-width="1.86877"/>
<path d="M122.038 -100.118L203.781 422.521" stroke="#FF6B74" stroke-width="1.86877"/>
<path d="M125.023 -100.516L206.766 422.123" stroke="#FF6BB2" stroke-width="1.86877"/>
<path d="M128.009 -100.91L209.752 421.729" stroke="#EC70FF" stroke-width="1.86877"/>
<path d="M130.993 -101.306L212.736 421.333" stroke="#E16BFF" stroke-width="1.86877"/>
<path d="M133.978 -101.705L215.72 420.934" stroke="#AC6BFF" stroke-width="1.86877"/>
<path d="M136.96 -102.102L218.703 420.537" stroke="#916BFF" stroke-width="1.86877"/>
<path d="M139.945 -102.498L221.688 420.141" stroke="#6E6BFF" stroke-width="1.86877"/>
<path d="M142.931 -102.895L224.674 419.743" stroke="#2463D6" stroke-width="1.86877"/>
<path d="M145.914 -103.292L227.656 419.347" stroke="#4B84EB" stroke-width="1.86877"/>
<path d="M148.898 -103.689L230.641 418.95" stroke="#6BB8FF" stroke-width="1.86877"/>
<path d="M151.884 -104.086L233.626 418.553" stroke="#6BCAFF" stroke-width="1.86877"/>
<path d="M154.865 -104.482L236.607 418.157" stroke="#6BF6FF" stroke-width="1.86877"/>
<path d="M157.853 -104.879L239.595 417.759" stroke="#43BA7F" stroke-width="1.86877"/>
<path d="M160.836 -105.278L242.579 417.361" stroke="#FCC232" stroke-width="1.86877"/>
</g>
</g>
<g clip-path="url(#clip2_1_1003)">
<mask id="mask1_1_1003" style="mask-type:alpha" maskUnits="userSpaceOnUse" x="-83" y="38" width="282" height="261">
<rect width="341.362" height="47.7975" rx="4.98339" transform="matrix(-0.742446 -0.669906 0.669905 -0.742447 168.801 300.388)" fill="#C4C4C4"/>
</mask>
<g mask="url(#mask1_1_1003)">
<path d="M-162.44 17.1369L238.352 362.388" stroke="#FCC232" stroke-width="1.86877"/>
<path d="M-160.422 14.9007L240.37 360.152" stroke="white" stroke-width="1.86877"/>
<path d="M-158.405 12.6662L242.387 357.917" stroke="#FCC232" stroke-width="1.86877"/>
<path d="M-156.388 10.4323L244.405 355.684" stroke="#FFDF6B" stroke-width="1.86877"/>
<path d="M-154.372 8.19708L246.421 353.448" stroke="#FFC46B" stroke-width="1.86877"/>
<path d="M-152.356 5.96051L248.436 351.212" stroke="#FF986B" stroke-width="1.86877"/>
<path d="M-150.337 3.72431L250.455 348.976" stroke="#FF746B" stroke-width="1.86877"/>
<path d="M-148.322 1.49164L252.47 346.743" stroke="#FF6B74" stroke-width="1.86877"/>
<path d="M-146.306 -0.744933L254.487 344.506" stroke="#FF6BB2" stroke-width="1.86877"/>
<path d="M-144.286 -2.97906L256.506 342.272" stroke="#EC70FF" stroke-width="1.86877"/>
<path d="M-142.27 -5.21368L258.523 340.038" stroke="#E16BFF" stroke-width="1.86877"/>
<path d="M-140.253 -7.45074L260.539 337.8" stroke="#AC6BFF" stroke-width="1.86877"/>
<path d="M-138.238 -9.68536L262.555 335.566" stroke="#916BFF" stroke-width="1.86877"/>
<path d="M-136.221 -11.92L264.571 333.331" stroke="#6E6BFF" stroke-width="1.86877"/>
<path d="M-134.203 -14.1566L266.589 331.095" stroke="#2463D6" stroke-width="1.86877"/>
<path d="M-132.187 -16.3907L268.605 328.861" stroke="#4B84EB" stroke-width="1.86877"/>
<path d="M-130.171 -18.6259L270.621 326.625" stroke="#6BB8FF" stroke-width="1.86877"/>
<path d="M-128.154 -20.8621L272.639 324.389" stroke="#6BCAFF" stroke-width="1.86877"/>
<path d="M-126.138 -23.0953L274.654 322.156" stroke="#6BF6FF" stroke-width="1.86877"/>
<path d="M-124.12 -25.3333L276.672 319.918" stroke="#43BA7F" stroke-width="1.86877"/>
<path d="M-122.105 -27.5689L278.687 317.682" stroke="#FCC232" stroke-width="1.86877"/>
</g>
</g>
<path d="M22.4079 12.2988C22.7791 12.0117 23.3127 12.0798 23.5998 12.451C27.6949 17.7451 27.6832 24.6709 23.6009 29.9717C23.3146 30.3435 22.7811 30.4128 22.4093 30.1264C22.0375 29.8401 21.9682 29.3066 22.2545 28.9348C25.8679 24.2428 25.8753 18.1703 22.2556 13.4908C21.9685 13.1196 22.0367 12.5859 22.4079 12.2988Z" fill="white"/>
<path d="M19.0165 14.4907C19.3875 14.2033 19.9212 14.271 20.2087 14.6419C23.2805 18.6062 23.268 23.8094 20.2102 27.7794C19.9238 28.1512 19.3903 28.2204 19.0185 27.934C18.6467 27.6477 18.5775 27.1142 18.8638 26.7424C21.4533 23.3805 21.4599 19.0312 18.8653 15.6828C18.5779 15.3119 18.6456 14.7781 19.0165 14.4907Z" fill="white"/>
<path d="M17.3867 17.6595C17.1005 17.2876 16.567 17.2182 16.1951 17.5044C15.8232 17.7906 15.7537 18.3241 16.0399 18.696C17.213 20.2202 17.2201 22.1778 16.0403 23.7083C15.7538 24.08 15.8229 24.6135 16.1946 24.9C16.5662 25.1865 17.0998 25.1175 17.3863 24.7458C19.0397 22.6008 19.0276 19.7917 17.3867 17.6595Z" fill="white"/>
</g>
<defs>
<clipPath id="clip0_1_1003">
<path d="M0.00012207 22.4C0.00012207 14.5593 0.00012207 10.6389 1.52603 7.64413C2.86826 5.00986 5.00999 2.86814 7.64425 1.52591C10.639 0 14.5594 0 22.4001 0H183.6C191.441 0 195.361 0 198.356 1.52591C200.99 2.86814 203.132 5.00986 204.474 7.64413C206 10.6389 206 14.5593 206 22.4V109.091H0.00012207V22.4Z" fill="white"/>
</clipPath>
<clipPath id="clip1_1_1003">
<rect width="47.8787" height="121.212" fill="white" transform="translate(125.556 -1.77136) rotate(-7.57179)"/>
</clipPath>
<clipPath id="clip2_1_1003">
<rect width="47.8787" height="121.212" fill="white" transform="matrix(0.669905 -0.742447 0.742446 0.669906 -81.943 74.143)"/>
</clipPath>
</defs>
</svg>
